<svg width="11" height="11" viewBox="0 0 11 11" fill="none" xmlns="http://www.w3.org/2000/svg">
<path d="M9.16667 3.20841H7.79167C7.54855 3.20841 7.31539 3.11184 7.14349 2.93993C6.97158 2.76802 6.875 2.53486 6.875 2.29175V0.916748" stroke="#8BA3CB" stroke-width="1.13636" stroke-linecap="round" stroke-linejoin="round"/>
<path d="M4.12492 8.25008C3.8818 8.25008 3.64865 8.1535 3.47674 7.9816C3.30483 7.80969 3.20825 7.57653 3.20825 7.33341V1.83341C3.20825 1.5903 3.30483 1.35714 3.47674 1.18523C3.64865 1.01333 3.8818 0.916748 4.12492 0.916748H7.33325L9.16659 2.75008V7.33341C9.16659 7.57653 9.07001 7.80969 8.8981 7.9816C8.72619 8.1535 8.49303 8.25008 8.24992 8.25008H4.12492Z" stroke="#8BA3CB" stroke-width="1.13636" stroke-linecap="round" stroke-linejoin="round"/>
<path d="M1.375 3.4834V9.35006C1.375 9.54456 1.45226 9.73108 1.58979 9.86861C1.72732 10.0061 1.91384 10.0834 2.10833 10.0834H6.6" stroke="#8BA3CB" stroke-width="1.13636" stroke-linecap="round" stroke-linejoin="round"/>
</svg>
