<svg width="1440" height="1024" viewBox="0 0 1440 1024" fill="none" xmlns="http://www.w3.org/2000/svg">
<g clip-path="url(#clip0_3814_2700)">
<path d="M531.203 842.534C546.311 797.769 549.136 698.319 490.233 658.306C431.33 618.292 326.791 635.757 287.663 658.306C248.535 680.854 104.74 690.46 125.661 617.769C154.157 518.758 166.966 479.906 95.6207 504.045C24.2752 528.184 55.363 463.687 -24.5402 474.541C-88.4627 483.224 -153.284 578.609 -208 467.031" stroke="#FAB868"/>
<path d="M9.91821 215.342C27.3167 239.925 6.55178 261.13 -8.77084 261.907C-63.8728 264.103 -50.7318 242.91 -45.8012 208.329C-40.8706 173.749 -7.48032 190.759 9.91821 215.342Z" stroke="#FAB868"/>
<path d="M163.49 87.2521C170.097 93.0294 180.411 113.766 168.808 150.496C154.304 196.408 125.378 290.987 189.701 297.355C254.024 303.723 303.064 282.977 294.083 259.123C285.102 235.268 233.205 252.653 249.629 318.325C266.052 383.997 352.57 417.964 417.393 371.253" stroke="#FAB868"/>
<path d="M912.003 208.597C898.698 248.02 896.21 335.603 948.084 370.842C999.958 406.08 1092.02 390.699 1126.48 370.842C1160.94 350.984 1287.58 342.524 1269.15 406.542C1244.06 493.738 1232.78 527.954 1295.61 506.695C1358.44 485.436 1331.06 542.237 1401.43 532.678C1457.73 525.031 1514.81 441.028 1563 539.292" stroke="#FAB868"/>
<path d="M1371.08 760.948C1355.76 739.299 1374.05 720.624 1387.54 719.94C1436.07 718.006 1424.5 736.67 1420.16 767.124C1415.81 797.578 1386.41 782.598 1371.08 760.948Z" stroke="#FAB868"/>
<path d="M1235.84 873.754C1230.02 868.666 1220.94 850.404 1231.15 818.057C1243.93 777.623 1269.4 694.33 1212.75 688.722C1156.11 683.114 1112.92 701.384 1120.83 722.392C1128.74 743.4 1174.44 728.09 1159.98 670.254C1145.51 612.418 1069.32 582.505 1012.23 623.642" stroke="#FAB868"/>
<path d="M318.307 785.255C324.152 791.1 323.811 800.919 323.811 800.919C323.811 800.919 313.992 801.261 308.146 795.416C302.301 789.57 302.642 779.751 302.642 779.751C302.642 779.751 312.461 779.409 318.307 785.255Z" fill="#FFF1CE"/>
<circle cx="95.1282" cy="689.446" r="7.50669" transform="rotate(-90 95.1282 689.446)" fill="#FFF1CE"/>
<circle cx="113.895" cy="392.932" r="7.50669" transform="rotate(-90 113.895 392.932)" fill="#FFF1CE"/>
<circle cx="50.088" cy="229.661" r="7.50669" transform="rotate(-90 50.088 229.661)" fill="#FFF1CE"/>
<path d="M90.3083 311.63C98.022 309.916 104.707 304.431 108.65 297.402C112.421 290.717 113.107 283.518 112.764 275.976C112.764 275.633 112.764 275.29 112.764 275.118C112.421 275.118 112.078 275.118 111.735 275.118C101.793 275.804 92.0225 279.232 83.7945 284.718C75.9094 290.203 69.3956 297.574 63.2246 304.773C71.1097 310.259 81.5661 313.687 90.3083 311.63Z" fill="#AEDC90"/>
<path d="M90.3083 311.63C98.022 309.916 104.707 304.43 108.65 297.402C112.421 290.717 113.107 283.518 112.764 275.975C112.764 275.633 112.764 275.29 112.764 275.118C94.4223 308.03 63.2246 304.945 63.2246 304.945C71.1097 310.259 81.5661 313.687 90.3083 311.63Z" fill="#7CA661"/>
<path d="M78.9944 303.402C86.7081 301.859 94.2504 297.231 100.079 292.26C105.221 287.803 109.849 282.318 112.935 276.147C112.935 275.804 112.935 275.461 112.935 275.29C112.592 275.29 112.249 275.29 111.906 275.29C108.478 281.461 104.535 286.946 99.0501 291.574C95.9646 294.146 92.7077 296.374 89.108 298.259C85.8511 299.974 82.2513 301.174 78.823 302.373C77.9659 302.545 78.3088 303.573 78.9944 303.402Z" fill="#39700B"/>
<path d="M275.351 313.021C275.865 315.249 278.265 317.477 279.465 318.849C281.693 321.42 283.407 324.163 284.95 327.248C286.493 326.22 287.35 323.82 287.692 322.106C288.035 320.22 287.692 318.506 287.35 316.62C287.178 315.763 286.835 314.906 286.493 314.049C284.95 311.478 278.607 307.021 276.036 310.278C275.351 311.135 275.179 312.163 275.351 313.021Z" fill="#7CA661"/>
<path d="M43.4561 525.933L38.8279 530.39C38.8279 530.39 49.9699 531.075 54.0839 541.189L57.1694 537.075C57.1694 537.075 53.7411 528.504 43.4561 525.933Z" fill="#AEDC90"/>
<path d="M168.318 787.155C170.033 790.069 171.575 792.811 173.289 795.725C174.318 797.44 175.175 799.154 176.718 800.354C178.26 801.725 181.003 803.096 182.374 800.868C183.746 798.639 181.517 794.525 180.317 792.64C179.118 790.754 177.746 788.869 175.689 787.669C171.918 785.269 168.49 787.497 168.318 787.155Z" fill="#7CA661"/>
<path d="M291.522 665.214C285.583 660.578 284.569 652.032 289.204 646.093C293.26 640.878 300.358 639.429 306.008 642.326L314.699 617.122L234.594 597.132C234.594 599.884 233.725 602.781 231.842 605.244C227.352 610.893 219.24 611.907 213.445 607.561C208.376 603.65 207.072 596.552 209.969 591.048L167.527 580.473L145.798 613.935L161.153 634.939C165.354 633.635 170.134 634.215 173.755 637.112C179.549 641.602 180.708 650.004 176.363 655.943L216.777 711.422C217.212 710.263 217.791 709.104 218.515 708.091C222.137 703.455 228.945 702.586 233.725 706.207C238.36 709.829 239.23 716.637 235.608 721.417C233.435 724.169 230.249 725.618 227.062 725.618L240.388 743.87L285.873 700.123L296.882 668.111C295.144 667.386 293.26 666.517 291.522 665.214Z" fill="#EBB64A"/>
<path d="M145.943 613.645L161.298 634.649C165.499 633.345 170.279 633.925 173.9 636.822C179.694 641.312 180.853 649.714 176.507 655.653L216.922 711.132C217.356 709.974 217.936 708.815 218.66 707.801C222.282 703.165 229.09 702.296 233.87 705.918C238.505 709.539 239.374 716.347 235.753 721.127C233.58 723.88 230.393 725.328 227.207 725.328L240.533 743.58L286.018 699.834L167.526 580.184L145.943 613.645Z" fill="#EEC94D"/>
<path d="M220.399 658.55C224.31 661.592 224.889 667.097 221.992 671.008C218.95 674.919 213.446 675.498 209.535 672.601C205.624 669.559 205.044 664.055 207.941 660.144C210.983 656.232 216.632 655.508 220.399 658.55Z" fill="#EBB64A"/>
<path d="M173.9 600.463C176.363 602.346 176.798 605.968 174.914 608.43C173.031 610.893 169.41 611.327 166.947 609.444C164.485 607.561 164.05 603.94 165.933 601.477C167.817 599.015 171.438 598.58 173.9 600.463Z" fill="#EBB64A"/>
<path d="M259.944 682.741C264.144 686.073 264.869 692.157 261.682 696.357C258.35 700.558 252.266 701.282 248.065 698.096C243.865 694.764 243.14 688.68 246.327 684.479C249.659 680.134 255.743 679.409 259.944 682.741Z" fill="#EBB64A"/>
<path d="M271.242 621.178C274.864 623.93 275.443 629.145 272.691 632.766C269.939 636.388 264.724 636.967 261.102 634.215C257.481 631.463 256.902 626.248 259.654 622.626C262.406 619.005 267.621 618.426 271.242 621.178Z" fill="#CC9431"/>
<path d="M212.215 393.38C212.215 393.38 250.57 439.504 250.57 449.699C250.57 459.895 234.548 467.016 247.981 478.183C261.413 489.511 270.638 464.588 270.638 464.588C270.638 464.588 288.44 470.576 294.59 457.953C300.74 445.33 284.556 444.035 270.476 440.798C256.397 437.723 231.797 376.873 231.797 376.873L212.215 393.38Z" fill="#F2D0A4"/>
<path d="M178.552 244.328C140.035 222.48 93.2642 258.246 104.269 301.133C104.431 301.78 104.593 302.266 104.755 302.913C114.465 335.928 207.845 404.709 216.099 402.767C229.369 399.692 214.48 385.774 225.809 391.114C237.138 396.455 245.068 402.281 239.08 373.15C233.092 343.858 203.637 259.541 179.847 245.137C179.362 244.814 178.876 244.49 178.552 244.328Z" fill="#C89059"/>
<path d="M148.612 325.894C119.967 295.145 113.493 271.355 112.522 258.893C104.107 270.222 100.223 285.111 104.269 301.133C104.431 301.78 104.592 302.266 104.754 302.913C114.464 335.928 207.845 404.709 216.098 402.767C229.369 399.692 214.48 385.774 225.809 391.114C237.137 396.455 245.067 402.281 239.079 373.15C238.108 368.781 236.652 363.116 234.871 356.643C216.584 359.232 179.847 359.394 148.612 325.894Z" fill="#BA7F4A"/>
<path d="M157.675 309.872C158.646 311.49 158.161 313.756 156.543 314.727C154.924 315.698 152.658 315.213 151.687 313.594C150.716 311.976 151.202 309.71 152.82 308.739C154.439 307.768 156.704 308.254 157.675 309.872Z" fill="#BA7F4A"/>
<path d="M176.287 324.276C177.42 326.218 176.934 328.645 174.992 329.94C173.05 331.073 170.623 330.587 169.328 328.645C168.195 326.703 168.681 324.276 170.623 322.981C172.565 321.686 174.992 322.334 176.287 324.276Z" fill="#BA7F4A"/>
<path d="M197.488 334.957C198.62 336.899 198.135 339.327 196.193 340.621C194.251 341.754 191.823 341.269 190.529 339.327C189.396 337.385 189.881 334.957 191.823 333.662C193.765 332.368 196.193 333.177 197.488 334.957Z" fill="#BA7F4A"/>
<path d="M190.69 316.508C191.661 317.964 191.176 319.906 189.719 320.715C188.263 321.686 186.321 321.201 185.512 319.744C184.541 318.288 185.026 316.346 186.483 315.536C187.939 314.565 189.719 315.051 190.69 316.508Z" fill="#BA7F4A"/>
<path d="M147.803 290.29C148.774 291.746 148.289 293.688 146.832 294.498C145.376 295.469 143.434 294.983 142.624 293.526C141.653 292.07 142.139 290.128 143.595 289.319C145.052 288.348 146.994 288.833 147.803 290.29Z" fill="#BA7F4A"/>
<path d="M75.9861 365.169C75.9861 340.398 55.9049 320.317 31.1336 320.317C6.36226 320.317 -13.7189 340.398 -13.7189 365.169C-13.7189 389.941 6.36226 410.022 31.1336 410.022C55.905 410.022 75.9861 389.941 75.9861 365.169Z" fill="#EBB64A"/>
<path d="M71.6105 365.169C71.6105 342.815 53.4885 324.693 31.1339 324.693C8.77923 324.693 -9.34278 342.815 -9.34278 365.169C-9.34277 387.524 8.77923 405.646 31.1339 405.646C53.4885 405.646 71.6105 387.524 71.6105 365.169Z" fill="white"/>
<path d="M29.9178 401.27L29.9178 373.921C29.9178 371.855 27.3652 370.761 25.9066 372.219L6.45836 391.546C5.48595 392.518 5.60751 394.22 6.57992 395.071C12.2928 399.812 19.4644 402.85 27.2437 403.58C28.7023 403.701 29.9178 402.607 29.9178 401.27Z" fill="#EEC94D"/>
<path d="M32.2272 373.8L32.2272 401.27C32.2272 402.729 33.4427 403.823 34.9013 403.58C42.6806 402.85 49.8521 399.69 55.5651 395.071C56.659 394.22 56.7806 392.518 55.6866 391.546L36.3599 372.219C34.7798 370.639 32.2272 371.733 32.2272 373.8Z" fill="#EEC94D"/>
<path d="M-7.27677 369.059C-6.54746 376.838 -3.38712 384.01 1.23183 389.723C2.08269 390.817 3.78442 390.938 4.75683 389.844L24.0835 370.518C25.5421 369.059 24.5697 366.507 22.3818 366.507L-4.96728 366.507C-6.30435 366.385 -7.39832 367.601 -7.27677 369.059Z" fill="#EEC94D"/>
<path d="M24.2048 359.943L4.87815 340.616C3.90574 339.644 2.20403 339.765 1.35317 340.738C-3.38734 346.451 -6.42612 353.622 -7.15543 361.401C-7.27698 362.86 -6.18303 364.075 -4.84596 364.075L22.5031 364.075C24.5695 364.075 25.6635 361.523 24.2048 359.943Z" fill="#EEC94D"/>
<path d="M29.9179 356.661L29.9179 329.312C29.9179 327.853 28.7024 326.759 27.2438 327.002C19.4645 327.732 12.293 330.892 6.58007 335.511C5.4861 336.362 5.36455 338.063 6.45851 339.036L25.7852 358.363C27.3654 359.821 29.9179 358.727 29.9179 356.661Z" fill="#EEC94D"/>
<path d="M32.2272 329.19L32.2272 356.539C32.2272 358.606 34.7798 359.7 36.2384 358.241L55.5651 338.914C56.5375 337.942 56.4159 336.24 55.4435 335.389C49.7306 330.649 42.5591 327.61 34.7798 326.881C33.4427 326.759 32.2272 327.853 32.2272 329.19Z" fill="#EEC94D"/>
<path d="M37.9405 370.396L57.2672 389.723C58.2396 390.695 59.9413 390.574 60.7922 389.601C65.5327 383.888 68.5715 376.717 69.3008 368.937C69.4224 367.479 68.3284 366.263 66.9913 366.263L39.6423 366.263C37.5759 366.385 36.4819 368.937 37.9405 370.396Z" fill="#EEC94D"/>
<path d="M37.9405 359.943C36.4819 361.401 37.4543 363.954 39.6422 363.954L66.9913 363.954C68.4499 363.954 69.5439 362.738 69.3008 361.28C68.5715 353.5 65.4111 346.329 60.7922 340.616C59.9413 339.522 58.2396 339.4 57.2672 340.494L37.9405 359.943Z" fill="#EEC94D"/>
<path d="M59.9195 679.832C59.9195 679.832 62.0662 674.056 58.041 670.755C54.0158 667.455 42.611 662.504 38.8542 651.365C37.915 648.477 37.1099 646.001 36.4391 643.801C34.9631 638.987 31.3404 635.137 26.6444 633.486C21.8141 631.699 15.6421 627.848 11.8853 619.459C5.17659 604.194 -0.458689 604.469 -5.28894 602.681C-10.1192 600.893 4.6399 588.929 24.0951 591.542C43.5503 594.155 56.5651 613.27 56.5651 613.27C56.5651 613.27 66.7623 621.384 71.7267 639.262C76.6911 657.003 66.3598 665.117 64.7497 668.28C63.1396 671.306 67.8357 676.944 65.4205 679.695C63.1396 682.17 59.9195 679.832 59.9195 679.832Z" fill="#D4E86D"/>
<path d="M24.229 591.542C4.77379 588.929 -10.1195 600.894 -5.15507 602.681C-2.06908 603.782 1.28527 604.057 5.04213 608.045C8.66482 605.844 14.4343 603.644 23.2897 603.919C41.0007 604.469 38.7197 621.247 44.6234 626.61C50.527 631.974 64.6152 631.011 65.957 649.302C66.762 660.166 61.5292 666.492 56.8331 669.793C57.3698 670.206 57.7724 670.481 58.1749 670.756C62.2001 674.056 60.0533 679.832 60.0533 679.832C60.0533 679.832 63.1393 682.17 65.5544 679.557C67.9696 676.944 63.2735 671.306 64.8836 668.143C66.4936 665.117 76.825 657.003 71.8606 639.125C66.8962 621.385 56.699 613.133 56.699 613.133C56.699 613.133 43.6841 594.292 24.229 591.542Z" fill="#B5CD5A"/>
<path d="M213.38 501.748L213.38 501.919C213.551 502.948 214.751 503.805 215.78 503.633C216.808 503.633 218.008 502.948 218.18 501.919L218.18 501.748C218.523 500.205 217.494 498.662 215.78 498.662C214.066 498.662 213.209 500.205 213.38 501.748Z" fill="#FFF1CE"/>
<path d="M109.531 692.516C109.531 692.516 111.141 686.603 106.848 683.715C102.554 680.827 90.7467 676.838 86.0506 666.112C84.8431 663.361 83.7697 660.886 82.9646 658.823C80.952 654.147 77.061 650.571 72.3649 649.334C67.4005 648.096 60.9602 644.795 56.5324 636.819C48.482 622.104 42.9809 623.067 38.0164 621.691C33.052 620.316 46.7377 607.114 66.3271 607.939C85.9164 608.764 100.541 626.642 100.541 626.642C100.541 626.642 111.409 633.793 117.85 651.121C124.29 668.449 114.764 677.388 113.422 680.552C112.08 683.715 117.179 688.941 115.032 691.829C112.885 694.441 109.531 692.516 109.531 692.516Z" fill="#D4E86D"/>
<path d="M66.3273 607.801C46.7379 606.976 32.9181 620.316 38.0167 621.554C41.2368 622.379 44.5912 622.379 48.7505 625.955C52.1049 623.342 57.7402 620.729 66.5957 620.179C84.3066 619.216 83.5015 635.994 89.8077 640.807C96.1138 645.62 110.068 643.42 113.02 661.436C114.764 672.3 110.068 678.901 105.64 682.614C106.177 682.889 106.714 683.165 107.116 683.44C111.41 686.328 109.8 692.241 109.8 692.241C109.8 692.241 113.154 694.166 115.301 691.416C117.447 688.528 112.349 683.302 113.691 680.139C115.032 676.976 124.559 667.899 118.118 650.709C111.678 633.381 100.81 626.23 100.81 626.23C100.81 626.23 85.9167 608.627 66.3273 607.801Z" fill="#B5CD5A"/>
<circle cx="1152.64" cy="365.72" r="6.56836" transform="rotate(-90 1152.64 365.72)" fill="#FFF1CE"/>
<circle cx="1342.18" cy="697.891" r="6.56836" transform="rotate(-90 1342.18 697.891)" fill="#FFF1CE"/>
<path d="M1201.89 622.269C1197.86 612.503 1190.83 603.517 1183.92 597.527C1169.86 585.417 1149.16 583.464 1131.05 587.5C1121.55 589.584 1112.17 593.23 1104.36 599.09C1084.05 613.935 1072.85 639.719 1071.15 664.721C1070.11 680.217 1074.41 697.146 1082.74 710.168C1096.55 731.393 1125.98 740.899 1150.59 729.831C1173.12 719.674 1168.95 703.136 1178.98 684.905C1187.18 669.93 1203.85 660.944 1205.54 642.193C1206.06 635.552 1204.63 628.65 1201.89 622.269Z" fill="#F4F4F4"/>
<path d="M1150.46 729.7C1172.99 719.543 1168.82 703.005 1178.85 684.775C1187.05 669.799 1203.72 660.814 1205.41 642.062C1205.93 635.551 1204.5 628.78 1201.76 622.269C1200.2 618.362 1198.12 614.716 1195.77 611.2C1193.56 654.824 1159.96 705.61 1132.49 714.465C1112.95 720.715 1093.29 713.423 1080.14 706.131C1080.92 707.563 1081.7 708.865 1082.48 710.168C1096.42 731.263 1125.85 740.769 1150.46 729.7Z" fill="#E3E3E3"/>
<path d="M1174.03 631.384C1174.03 615.491 1161.14 602.606 1145.25 602.606C1129.35 602.606 1116.47 615.491 1116.47 631.384C1116.47 647.278 1129.35 660.163 1145.25 660.163C1161.14 660.163 1174.03 647.278 1174.03 631.384Z" fill="#EBB64A"/>
<path d="M1168.3 623.962C1168.3 639.849 1155.41 652.741 1139.52 652.741C1131.97 652.741 1125.06 649.745 1119.86 644.927C1124.67 653.913 1134.18 660.163 1145.25 660.163C1161.14 660.163 1174.03 647.271 1174.03 631.384C1174.03 623.05 1170.51 615.628 1164.91 610.419C1167.13 614.456 1168.3 619.144 1168.3 623.962Z" fill="#E3A63B"/>
<path d="M1147.07 609.898C1150.07 613.805 1141.08 613.284 1134.57 618.362C1128.06 623.441 1126.37 632.296 1123.37 628.389C1120.38 624.483 1123.11 617.19 1129.62 612.112C1136.26 606.903 1143.95 605.992 1147.07 609.898Z" fill="white"/>
<path d="M1081.87 375.882C1079.65 382.034 1079.9 388.924 1082.73 394.953C1088.88 407.749 1100.69 429.403 1112.63 432.11C1129.85 435.924 1151.63 392 1187.8 348.937C1223.97 305.874 1238.49 301.199 1226.07 293.447C1213.64 285.696 1181.03 254.937 1142.77 279.298C1112.5 298.492 1089.99 353.489 1081.87 375.882Z" fill="#ECB579"/>
<path d="M1226.07 293.448C1219.18 289.141 1205.89 277.576 1188.91 272.531C1195.43 279.298 1200.84 287.788 1198.01 297.754C1191.37 321.254 1135.14 366.655 1113.98 400.613C1106.97 411.686 1104.63 420.668 1104.63 427.558C1107.34 429.773 1110.04 431.372 1112.75 431.987C1129.97 435.801 1151.75 391.877 1187.92 348.814C1223.97 305.997 1238.49 301.199 1226.07 293.448Z" fill="#DFA164"/>
<path d="M1157.9 378.589C1156.55 373.914 1156.55 368.869 1156.43 363.948C1156.43 362.717 1156.43 361.487 1156.43 360.257C1155.94 340.325 1149.66 324.084 1138.59 314.364C1136.13 312.272 1133.54 310.427 1130.96 308.581C1129.85 307.843 1128.74 307.105 1127.64 306.243C1125.18 304.521 1122.84 302.552 1120.5 300.584C1119.89 301.445 1119.27 302.306 1118.66 303.167C1120.99 305.136 1123.33 306.982 1125.79 308.827C1126.9 309.565 1128.01 310.427 1129.11 311.165C1131.57 312.887 1134.16 314.733 1136.5 316.701C1146.95 325.806 1152.86 341.309 1153.35 360.257C1153.35 361.487 1153.35 362.594 1153.35 363.825C1153.35 368.992 1153.47 374.16 1154.95 379.327C1155.81 382.157 1156.92 384.741 1158.4 387.202C1159.01 386.217 1159.75 385.356 1160.36 384.372C1159.38 382.649 1158.52 380.681 1157.9 378.589Z" fill="#F2D0A4"/>
<path d="M1129.24 401.597C1129.85 399.382 1130.34 397.168 1130.96 395.076C1133.67 384.372 1135.88 371.822 1131.94 360.011C1128.99 351.152 1122.96 343.77 1116.69 337.126C1112.87 332.942 1108.81 329.005 1104.88 325.068C1104.38 326.052 1103.77 326.914 1103.28 327.898C1107.09 331.589 1110.78 335.403 1114.35 339.217C1120.25 345.615 1126.16 352.628 1128.87 360.995C1132.44 371.945 1130.34 384.003 1127.76 394.338C1127.27 396.553 1126.65 398.644 1126.04 400.859C1123.7 409.841 1121.24 419.191 1121.24 428.665C1121.24 429.28 1121.24 429.896 1121.24 430.511C1122.22 429.896 1123.33 429.28 1124.31 428.542C1124.56 419.437 1126.9 410.333 1129.24 401.597Z" fill="#F2D0A4"/>
<path d="M1146.22 395.322C1143.51 386.833 1143.63 377.851 1144 370.838C1144 370.223 1144.12 369.608 1144.12 368.869C1144.37 364.194 1144.62 359.395 1143.63 354.597C1142.28 348.568 1138.83 343.401 1135.51 338.602C1130.22 331.097 1124.31 323.346 1116.32 317.563C1114.59 316.333 1113 315.348 1111.15 314.364C1110.53 315.225 1110.04 316.086 1109.55 317.071C1111.27 317.932 1112.87 318.916 1114.47 320.147C1122.1 325.56 1127.88 333.066 1132.93 340.448C1136.13 345 1139.33 349.922 1140.56 355.458C1141.54 359.765 1141.29 364.44 1141.05 368.869C1141.05 369.484 1140.92 370.1 1140.92 370.838C1140.56 378.097 1140.43 387.571 1143.26 396.43C1144.12 399.136 1145.23 401.597 1146.46 403.935C1147.2 403.074 1147.81 402.089 1148.55 401.105C1147.57 399.259 1146.83 397.291 1146.22 395.322Z" fill="#F2D0A4"/>
<path d="M1105.37 366.409C1107.95 372.191 1107.95 379.45 1105.37 388.555C1102.78 397.537 1098.6 406.026 1093.06 413.532C1093.68 414.516 1094.29 415.377 1094.91 416.362C1100.94 408.364 1105.61 399.136 1108.44 389.416C1111.27 379.574 1111.27 371.576 1108.32 365.055C1105.12 358.042 1099.09 353.49 1092.57 349.553C1092.08 350.537 1091.71 351.521 1091.34 352.505C1097.25 356.32 1102.66 360.257 1105.37 366.409Z" fill="#F2D0A4"/>
<path d="M1088.76 406.519C1092.82 399.136 1096.39 390.893 1097.25 382.157C1097.62 378.22 1097.37 374.898 1096.26 372.068C1094.79 367.885 1091.59 364.317 1087.28 361.733C1086.91 362.717 1086.42 363.702 1086.05 364.686C1089.5 366.901 1092.08 369.731 1093.19 373.053C1094.05 375.39 1094.29 378.22 1093.92 381.788C1093.19 389.293 1090.23 396.553 1086.79 403.197C1087.53 404.304 1088.14 405.411 1088.76 406.519Z" fill="#F2D0A4"/>
<path d="M1114.23 356.32C1122.59 368.869 1123.7 385.848 1117.06 399.382C1115.46 402.581 1113.49 405.78 1111.52 408.733C1108.07 414.147 1104.38 419.684 1103.03 426.205C1103.89 427.066 1104.87 427.927 1105.86 428.665C1105.98 428.05 1105.98 427.558 1106.11 426.943C1107.34 421.037 1110.66 415.869 1114.1 410.456C1116.07 407.38 1118.16 404.058 1119.89 400.736C1127.02 386.218 1125.79 368.008 1116.81 354.597C1112.13 347.584 1105.49 341.924 1097.86 338.356C1097.37 339.34 1097 340.202 1096.51 341.186C1103.64 344.508 1109.8 349.676 1114.23 356.32Z" fill="#F2D0A4"/>
<path d="M1218.56 306.49C1206.75 302.675 1195.68 299.107 1187.06 290.987C1184.73 288.772 1182.63 286.189 1180.54 283.728C1179.68 282.744 1178.82 281.759 1177.96 280.652C1174.76 276.961 1171.31 273.516 1167.75 270.194C1166.39 270.317 1165.04 270.563 1163.56 270.809C1167.87 274.377 1171.93 278.437 1175.62 282.744C1176.48 283.728 1177.34 284.712 1178.08 285.696C1180.17 288.28 1182.39 290.987 1184.85 293.325C1193.95 301.937 1205.89 305.751 1217.58 309.566C1219.18 310.058 1220.78 310.55 1222.38 311.165C1223.24 310.304 1223.97 309.443 1224.71 308.581C1222.62 307.843 1220.65 307.228 1218.56 306.49Z" fill="#F2D0A4"/>
<path d="M1222.01 290.741C1220.9 290.003 1219.79 289.141 1218.56 288.28C1215.61 288.772 1212.53 289.018 1209.58 288.526C1203.67 287.665 1198.14 284.589 1193.09 281.39C1187.8 278.068 1182.63 274.377 1177.84 270.44C1176.11 270.317 1174.39 270.194 1172.55 270.194C1178.57 275.238 1184.85 279.914 1191.37 284.097C1196.78 287.542 1202.57 290.864 1209.09 291.725C1213.52 292.217 1217.82 291.725 1222.01 290.741Z" fill="#F2D0A4"/>
<path d="M1200.97 316.947C1194.69 312.395 1189.16 306.858 1183.74 301.445C1179.68 297.508 1175.62 293.324 1171.19 289.633C1164.18 283.727 1156.8 279.052 1149.05 275.73C1147.81 276.345 1146.71 276.96 1145.48 277.699C1153.6 280.898 1161.72 285.819 1169.1 292.094C1173.41 295.785 1177.59 299.845 1181.53 303.782C1187.06 309.196 1192.72 314.856 1199.12 319.531C1202.32 321.869 1205.64 323.838 1208.84 325.314C1209.58 324.453 1210.44 323.714 1211.18 322.853C1207.73 321.377 1204.29 319.408 1200.97 316.947Z" fill="#F2D0A4"/>
<path d="M1169.35 336.511C1168.61 335.034 1167.87 333.435 1167.01 331.958C1162.83 323.469 1158.52 314.733 1152.24 307.474C1146.22 300.461 1138.34 294.678 1129.24 290.618C1128.5 291.356 1127.76 292.217 1127.02 293.079C1136.13 297.016 1143.88 302.552 1149.91 309.565C1155.94 316.579 1160.12 325.191 1164.3 333.435C1165.04 334.911 1165.78 336.511 1166.64 337.987C1170.33 345.246 1174.51 352.628 1180.05 358.78C1180.67 357.919 1181.4 357.181 1182.02 356.32C1176.85 350.414 1172.91 343.401 1169.35 336.511Z" fill="#F2D0A4"/>
<path d="M1194.82 340.571C1189.77 335.157 1185.46 328.882 1181.4 322.853C1177.1 316.579 1172.67 310.058 1167.38 304.398C1159.01 295.416 1148.55 288.772 1138.46 282.374C1137.6 282.989 1136.74 283.728 1135.88 284.466C1146.09 290.864 1156.8 297.631 1165.16 306.49C1170.33 312.026 1174.76 318.424 1178.94 324.576C1183.13 330.728 1187.43 337.126 1192.72 342.662C1192.85 342.785 1192.97 342.908 1193.09 343.031C1193.58 342.293 1194.32 341.432 1194.82 340.571C1194.94 340.694 1194.94 340.694 1194.82 340.571Z" fill="#F2D0A4"/>
<path d="M1151.56 536.2C1149.85 538.086 1146.76 538.943 1144.19 539.8C1145.56 541.171 1146.42 542.885 1146.59 544.942C1150.36 544.085 1153.79 541.857 1155.5 538.428C1154.3 538.257 1152.42 537.228 1151.56 536.2Z" fill="#AEDC90"/>
<path d="M1443.46 525.933L1438.83 530.39C1438.83 530.39 1449.97 531.075 1454.08 541.189L1457.17 537.075C1457.17 537.075 1453.74 528.504 1443.46 525.933Z" fill="#AEDC90"/>
<path d="M1301.56 773.613C1305.84 772.756 1309.27 769.67 1311.5 765.899C1313.56 762.299 1313.9 758.357 1313.73 754.243C1313.73 754.071 1313.73 753.9 1313.73 753.729C1313.56 753.729 1313.39 753.729 1313.22 753.729C1307.73 754.071 1302.59 755.957 1297.96 759.042C1293.67 761.956 1290.25 765.899 1286.82 769.842C1291.1 772.756 1296.76 774.641 1301.56 773.613Z" fill="#AEDC90"/>
<path d="M1301.56 773.613C1305.84 772.756 1309.27 769.67 1311.5 765.899C1313.56 762.299 1313.9 758.357 1313.73 754.243C1313.73 754.071 1313.73 753.9 1313.73 753.729C1303.79 771.556 1286.82 769.842 1286.82 769.842C1291.1 772.756 1296.76 774.641 1301.56 773.613Z" fill="#7CA661"/>
<path d="M1295.39 769.156C1299.5 768.299 1303.62 765.899 1306.7 763.157C1309.44 760.757 1312.02 757.843 1313.73 754.414C1313.73 754.243 1313.73 754.072 1313.73 753.9C1313.56 753.9 1313.39 753.9 1313.22 753.9C1311.33 757.157 1309.27 760.243 1306.19 762.642C1304.47 764.014 1302.76 765.214 1300.87 766.242C1298.99 767.271 1297.1 767.785 1295.22 768.47C1294.87 768.642 1295.05 769.156 1295.39 769.156Z" fill="#39700B"/>
<path d="M1239.63 217.284C1243.91 218.141 1247.34 221.226 1249.57 224.997C1251.63 228.597 1251.97 232.54 1251.8 236.653C1251.8 236.825 1251.8 236.996 1251.8 237.168C1251.63 237.168 1251.46 237.168 1251.29 237.168C1245.8 236.825 1240.66 234.939 1236.03 231.854C1231.74 228.94 1228.32 224.997 1224.89 221.055C1229.17 218.141 1234.83 216.255 1239.63 217.284Z" fill="#AEDC90"/>
<path d="M1239.63 217.284C1243.91 218.141 1247.34 221.226 1249.57 224.997C1251.63 228.597 1251.97 232.54 1251.8 236.653C1251.8 236.825 1251.8 236.996 1251.8 237.168C1241.86 219.34 1224.89 221.055 1224.89 221.055C1229.17 218.141 1234.83 216.255 1239.63 217.284Z" fill="#7CA661"/>
<path d="M1233.46 221.74C1237.57 222.597 1241.69 224.997 1244.77 227.74C1247.51 230.139 1250.09 233.053 1251.8 236.482C1251.8 236.653 1251.8 236.825 1251.8 236.996C1251.63 236.996 1251.46 236.996 1251.29 236.996C1249.4 233.739 1247.34 230.654 1244.26 228.254C1242.54 226.883 1240.83 225.683 1238.94 224.654C1237.06 223.626 1235.17 223.111 1233.29 222.426C1232.94 222.254 1233.12 221.74 1233.46 221.74Z" fill="#39700B"/>
<path d="M1475.99 365.169C1475.99 340.398 1455.9 320.317 1431.13 320.317C1406.36 320.317 1386.28 340.398 1386.28 365.169C1386.28 389.941 1406.36 410.022 1431.13 410.022C1455.9 410.022 1475.99 389.941 1475.99 365.169Z" fill="#EBB64A"/>
<path d="M1471.61 365.169C1471.61 342.815 1453.49 324.693 1431.13 324.693C1408.78 324.693 1390.66 342.815 1390.66 365.169C1390.66 387.524 1408.78 405.646 1431.13 405.646C1453.49 405.646 1471.61 387.524 1471.61 365.169Z" fill="white"/>
<path d="M1429.92 401.27L1429.92 373.921C1429.92 371.855 1427.37 370.761 1425.91 372.219L1406.46 391.546C1405.49 392.518 1405.61 394.22 1406.58 395.071C1412.29 399.812 1419.46 402.85 1427.24 403.58C1428.7 403.701 1429.92 402.607 1429.92 401.27Z" fill="#EEC94D"/>
<path d="M1432.23 373.8L1432.23 401.27C1432.23 402.729 1433.44 403.823 1434.9 403.58C1442.68 402.85 1449.85 399.69 1455.56 395.071C1456.66 394.22 1456.78 392.518 1455.69 391.546L1436.36 372.219C1434.78 370.639 1432.23 371.733 1432.23 373.8Z" fill="#EEC94D"/>
<path d="M1392.72 369.059C1393.45 376.838 1396.61 384.01 1401.23 389.723C1402.08 390.817 1403.78 390.938 1404.76 389.844L1424.08 370.518C1425.54 369.059 1424.57 366.507 1422.38 366.507L1395.03 366.507C1393.7 366.385 1392.6 367.601 1392.72 369.059Z" fill="#EEC94D"/>
<path d="M1424.2 359.943L1404.88 340.616C1403.91 339.644 1402.2 339.765 1401.35 340.738C1396.61 346.451 1393.57 353.622 1392.84 361.401C1392.72 362.86 1393.82 364.075 1395.15 364.075L1422.5 364.075C1424.57 364.075 1425.66 361.523 1424.2 359.943Z" fill="#EEC94D"/>
<path d="M1429.92 356.661L1429.92 329.312C1429.92 327.853 1428.7 326.759 1427.24 327.002C1419.46 327.732 1412.29 330.892 1406.58 335.511C1405.49 336.362 1405.36 338.063 1406.46 339.036L1425.79 358.363C1427.37 359.821 1429.92 358.727 1429.92 356.661Z" fill="#EEC94D"/>
<path d="M1432.23 329.19L1432.23 356.539C1432.23 358.606 1434.78 359.7 1436.24 358.241L1455.56 338.914C1456.54 337.942 1456.42 336.24 1455.44 335.389C1449.73 330.649 1442.56 327.61 1434.78 326.881C1433.44 326.759 1432.23 327.853 1432.23 329.19Z" fill="#EEC94D"/>
<path d="M1437.94 370.396L1457.27 389.723C1458.24 390.695 1459.94 390.574 1460.79 389.601C1465.53 383.888 1468.57 376.717 1469.3 368.937C1469.42 367.479 1468.33 366.263 1466.99 366.263L1439.64 366.263C1437.58 366.385 1436.48 368.937 1437.94 370.396Z" fill="#EEC94D"/>
<path d="M1437.94 359.943C1436.48 361.401 1437.45 363.954 1439.64 363.954L1466.99 363.954C1468.45 363.954 1469.54 362.738 1469.3 361.28C1468.57 353.5 1465.41 346.329 1460.79 340.616C1459.94 339.522 1458.24 339.4 1457.27 340.494L1437.94 359.943Z" fill="#EEC94D"/>
<path d="M1459.92 679.832C1459.92 679.832 1462.07 674.056 1458.04 670.755C1454.02 667.455 1442.61 662.504 1438.85 651.365C1437.92 648.477 1437.11 646.001 1436.44 643.801C1434.96 638.987 1431.34 635.137 1426.64 633.486C1421.81 631.699 1415.64 627.848 1411.89 619.459C1405.18 604.194 1399.54 604.469 1394.71 602.681C1389.88 600.893 1404.64 588.929 1424.1 591.542C1443.55 594.155 1456.57 613.27 1456.57 613.27C1456.57 613.27 1466.76 621.384 1471.73 639.262C1476.69 657.003 1466.36 665.117 1464.75 668.28C1463.14 671.306 1467.84 676.944 1465.42 679.695C1463.14 682.17 1459.92 679.832 1459.92 679.832Z" fill="#D4E86D"/>
<path d="M1424.23 591.542C1404.77 588.929 1389.88 600.894 1394.85 602.681C1397.93 603.782 1401.29 604.057 1405.04 608.045C1408.66 605.844 1414.43 603.644 1423.29 603.919C1441 604.469 1438.72 621.247 1444.62 626.61C1450.53 631.974 1464.62 631.011 1465.96 649.302C1466.76 660.166 1461.53 666.492 1456.83 669.793C1457.37 670.206 1457.77 670.481 1458.17 670.756C1462.2 674.056 1460.05 679.832 1460.05 679.832C1460.05 679.832 1463.14 682.17 1465.55 679.557C1467.97 676.944 1463.27 671.306 1464.88 668.143C1466.49 665.117 1476.83 657.003 1471.86 639.125C1466.9 621.385 1456.7 613.133 1456.7 613.133C1456.7 613.133 1443.68 594.292 1424.23 591.542Z" fill="#B5CD5A"/>
<path d="M1509.53 692.516C1509.53 692.516 1511.14 686.603 1506.85 683.715C1502.55 680.827 1490.75 676.838 1486.05 666.112C1484.84 663.361 1483.77 660.886 1482.96 658.823C1480.95 654.147 1477.06 650.571 1472.36 649.334C1467.4 648.096 1460.96 644.795 1456.53 636.819C1448.48 622.104 1442.98 623.067 1438.02 621.691C1433.05 620.316 1446.74 607.114 1466.33 607.939C1485.92 608.764 1500.54 626.642 1500.54 626.642C1500.54 626.642 1511.41 633.793 1517.85 651.121C1524.29 668.449 1514.76 677.388 1513.42 680.552C1512.08 683.715 1517.18 688.941 1515.03 691.829C1512.89 694.441 1509.53 692.516 1509.53 692.516Z" fill="#D4E86D"/>
<path d="M1466.33 607.801C1446.74 606.976 1432.92 620.316 1438.02 621.554C1441.24 622.379 1444.59 622.379 1448.75 625.955C1452.1 623.342 1457.74 620.729 1466.6 620.179C1484.31 619.216 1483.5 635.994 1489.81 640.807C1496.11 645.62 1510.07 643.42 1513.02 661.436C1514.76 672.3 1510.07 678.901 1505.64 682.614C1506.18 682.889 1506.71 683.165 1507.12 683.44C1511.41 686.328 1509.8 692.241 1509.8 692.241C1509.8 692.241 1513.15 694.166 1515.3 691.416C1517.45 688.528 1512.35 683.302 1513.69 680.139C1515.03 676.976 1524.56 667.899 1518.12 650.709C1511.68 633.381 1500.81 626.23 1500.81 626.23C1500.81 626.23 1485.92 608.627 1466.33 607.801Z" fill="#B5CD5A"/>
</g>
<defs>
<clipPath id="clip0_3814_2700">
<rect width="1440" height="1024" fill="white"/>
</clipPath>
</defs>
</svg>
