<svg width="133" height="51" viewBox="0 0 133 51" fill="none" xmlns="http://www.w3.org/2000/svg">
<rect x="0.5" y="0.5" width="132" height="50" rx="10" fill="#FEEDD9"/>
<path d="M54.2314 38.0441C59.1162 38.0441 62.5241 35.5801 63.3193 31.4861H59.0404C58.5103 33.2678 56.8442 34.2534 54.3072 34.2534C51.24 34.2534 49.4982 32.5855 49.1574 29.2875L63.2436 29.2496V27.8471C63.2436 22.0094 59.6842 18.2566 54.08 18.2566C48.5894 18.2566 44.7649 22.3126 44.7649 28.1882C44.7649 33.988 48.6651 38.0441 54.2314 38.0441ZM54.1178 22.0473C56.8821 22.0473 58.6618 23.7531 58.6618 26.3308H49.271C49.7254 23.5256 51.3915 22.0473 54.1178 22.0473Z" fill="#F8951D"/>
<path d="M72.3223 38.0441C75.238 38.0441 77.775 36.7173 78.5702 34.7841L78.911 37.5513H82.9627V26.1791C82.9627 20.9859 79.8577 18.2566 74.8215 18.2566C69.7474 18.2566 66.4152 20.9101 66.4152 24.9661H70.3533C70.3533 22.9949 71.8679 21.8577 74.5943 21.8577C76.942 21.8577 78.4566 22.8812 78.4566 25.421V25.838L72.8524 26.255C68.4221 26.5961 65.9229 28.7568 65.9229 32.2064C65.9229 35.7318 68.3464 38.0441 72.3223 38.0441ZM73.837 34.5566C71.7543 34.5566 70.6183 33.7227 70.6183 32.0168C70.6183 30.5006 71.7164 29.5529 74.5943 29.2875L78.4945 28.9843V29.9699C78.4945 32.8508 76.6769 34.5566 73.837 34.5566Z" fill="#F8951D"/>
<path d="M93.6037 37.5513V22.6917H97.2388V18.8252H93.6037V12.9875H88.984V18.8252H85.3867V22.6917H88.984V37.5513H93.6037Z" fill="#F8951D"/>
<path d="M102.421 15.0723C103.935 15.0723 105.185 13.8214 105.185 12.2672C105.185 10.713 103.935 9.5 102.421 9.5C100.83 9.5 99.5806 10.713 99.5806 12.2672C99.5806 13.8214 100.83 15.0723 102.421 15.0723ZM100.111 37.5513H104.73V18.8252H100.111V37.5513Z" fill="#F8951D"/>
<path d="M115.865 37.5513V22.6917H119.5V18.8252H115.865V12.9875H111.245V18.8252H107.648V22.6917H111.245V37.5513H115.865Z" fill="#F8951D"/>
<path d="M20.5004 16.862C21.1313 18.5773 22.6094 19.8166 24.422 21.2226C26.3931 22.7509 28.3172 24.2969 28.1766 26.5063C28.1862 26.6585 28.1859 26.8075 28.1766 26.9533V31.1158C28.3982 32.1373 26.9256 31.3201 25.7242 32.396C25.0897 32.9634 23.8969 32.8939 22.6962 33.2032C21.6952 34.1015 20.9135 35.0232 20.5 36.1505H36.1318C35.6593 34.8654 34.711 33.8475 33.5026 32.8264C32.4822 32.9197 31.5335 33.3921 30.9785 32.8956C29.7771 31.8197 28.2335 32.1384 28.4568 31.1172V26.9689C28.4463 26.818 28.4455 26.6632 28.4568 26.5063C28.3161 24.2969 30.2395 22.7514 32.2117 21.2226C32.8473 20.7291 33.4422 20.2564 33.9735 19.7777C28.4757 19.8452 29.3563 16.4302 20.5004 16.862Z" fill="#F8951D"/>
<path d="M21.2723 15.463C21.4388 18.6682 23.1964 20.5716 24.6742 22.1721C25.9829 23.5892 27.0976 24.7974 26.9902 26.5068C27.0976 28.216 25.9829 29.4245 24.6742 30.8416C23.1964 32.4424 21.4394 34.3458 21.2723 37.5507H35.7072C35.5407 34.3458 33.7831 32.4424 32.3051 30.8416C30.9963 29.4245 29.8816 28.2166 29.9893 26.5068C29.8816 24.798 30.9963 23.5892 32.3051 22.1721C33.7831 20.5716 35.5398 18.6682 35.7072 15.463H21.2723ZM23.7981 22.9826C22.0922 21.1354 20.0465 18.9194 20.0646 14.9125V14.8586L20.0696 14.2637H36.9085L36.9135 14.8586V14.9125C36.9319 18.9194 34.8873 21.1368 33.1802 22.9826C32.0528 24.2036 31.094 25.2423 31.1854 26.4618V26.5521C31.094 27.772 32.0528 28.8104 33.1802 30.0316C34.8859 31.8775 36.931 34.0932 36.9135 38.1004V38.154L36.9085 38.7489H20.0707L20.0657 38.154V38.1004C20.0476 34.0932 22.0933 31.8761 23.7993 30.0302C24.9265 28.809 25.8855 27.7706 25.7939 26.5508V26.4618C25.8855 25.2423 24.9265 24.2036 23.7993 22.9826H23.7981Z" fill="#F8951D"/>
<path fill-rule="evenodd" clip-rule="evenodd" d="M19.7452 13.1853H37.2337C37.5353 13.1861 37.8243 13.3064 38.0375 13.5199C38.2508 13.7334 38.3709 14.0227 38.3717 14.3246C38.371 14.6265 38.2509 14.9158 38.0376 15.1293C37.8243 15.3428 37.5353 15.4631 37.2337 15.4638H19.7452C19.4436 15.463 19.1546 15.3427 18.9414 15.1293C18.7281 14.9158 18.608 14.6265 18.6072 14.3246C18.6081 14.0227 18.7282 13.7334 18.9415 13.52C19.1547 13.3065 19.4437 13.1862 19.7452 13.1853Z" fill="#F8951D"/>
<path fill-rule="evenodd" clip-rule="evenodd" d="M19.7452 37.5498H37.2337C37.5353 37.5506 37.8243 37.6709 38.0375 37.8844C38.2508 38.0979 38.3709 38.3872 38.3717 38.6891C38.371 38.991 38.2509 39.2803 38.0376 39.4938C37.8243 39.7073 37.5353 39.8276 37.2337 39.8283H19.7452C19.4436 39.8275 19.1546 39.7072 18.9414 39.4938C18.7281 39.2803 18.608 38.991 18.6072 38.6891C18.6081 38.3872 18.7282 38.0979 18.9415 37.8845C19.1547 37.671 19.4437 37.5507 19.7452 37.5498Z" fill="#F8951D"/>
</svg>
