<svg width="112" height="34" viewBox="0 0 112 34" fill="none" xmlns="http://www.w3.org/2000/svg">
<path d="M43.0371 30.3281C48.1983 30.3281 51.7992 27.7101 52.6394 23.3603H48.1183C47.5581 25.2533 45.7977 26.3005 43.1171 26.3005C39.8763 26.3005 38.0359 24.5283 37.6758 21.0243L52.5593 20.984V19.4938C52.5593 13.2912 48.7984 9.30384 42.877 9.30384C37.0756 9.30384 33.0347 13.6134 33.0347 19.8562C33.0347 26.0185 37.1557 30.3281 43.0371 30.3281ZM42.917 13.3315C45.8377 13.3315 47.7182 15.1439 47.7182 17.8827H37.7958C38.2759 14.9023 40.0363 13.3315 42.917 13.3315Z" fill="#F8951D"/>
<path d="M62.1519 30.3281C65.2327 30.3281 67.9133 28.9184 68.7535 26.8643L69.1136 29.8045H73.3946V17.7216C73.3946 12.2037 70.1138 9.30384 64.7926 9.30384C59.4313 9.30384 55.9104 12.1232 55.9104 16.4328H60.0714C60.0714 14.3384 61.6718 13.1301 64.5525 13.1301C67.0331 13.1301 68.6335 14.2176 68.6335 16.9161V17.3591L62.7121 17.8021C58.031 18.1646 55.3903 20.4604 55.3903 24.1255C55.3903 27.8712 57.9509 30.3281 62.1519 30.3281ZM63.7523 26.6227C61.5518 26.6227 60.3515 25.7366 60.3515 23.9242C60.3515 22.3131 61.5118 21.3062 64.5525 21.0243L68.6735 20.702V21.7492C68.6735 24.8102 66.753 26.6227 63.7523 26.6227Z" fill="#F8951D"/>
<path d="M84.6379 29.8045V14.0162H88.4789V9.90798H84.6379V3.70542H79.7568V9.90798H75.9559V14.0162H79.7568V29.8045H84.6379Z" fill="#F8951D"/>
<path d="M93.9539 5.92062C95.5543 5.92062 96.8746 4.5915 96.8746 2.94017C96.8746 1.28884 95.5543 0 93.9539 0C92.2735 0 90.9532 1.28884 90.9532 2.94017C90.9532 4.5915 92.2735 5.92062 93.9539 5.92062ZM91.5133 29.8045H96.3945V9.90798H91.5133V29.8045Z" fill="#F8951D"/>
<path d="M108.159 29.8045V14.0162H112V9.90798H108.159V3.70542H103.278V9.90798H99.4771V14.0162H103.278V29.8045H108.159Z" fill="#F8951D"/>
<path d="M8.00039 7.82211C8.63132 9.6446 10.1094 10.9613 11.922 12.4552C13.8931 14.079 15.8172 15.7217 15.6766 18.0691C15.6862 18.2309 15.6859 18.3892 15.6766 18.5442V22.9668C15.8982 24.0521 14.4256 23.1838 13.2242 24.327C12.5897 24.9298 11.3969 24.856 10.1962 25.1846C9.1952 26.1391 8.41351 27.1184 8 28.3162H23.6318C23.1593 26.9507 22.211 25.8693 21.0026 24.7843C19.9822 24.8835 19.0335 25.3854 18.4785 24.8578C17.2771 23.7146 15.7335 24.0533 15.9568 22.9683V18.5607C15.9463 18.4004 15.9455 18.236 15.9568 18.0691C15.8161 15.7217 17.7395 14.0796 19.7117 12.4552C20.3473 11.9309 20.9422 11.4287 21.4735 10.92C15.9757 10.9918 16.8563 7.36331 8.00039 7.82211Z" fill="#F8951D"/>
<path d="M8.21222 6.33552C8.38819 9.74106 10.2452 11.7634 11.8067 13.464C13.1895 14.9697 14.3673 16.2534 14.2538 18.0697C14.3673 19.8856 13.1895 21.1696 11.8067 22.6753C10.2452 24.3762 8.38878 26.3985 8.21222 29.8038H23.4642C23.2883 26.3985 21.4312 24.3762 19.8695 22.6753C18.4867 21.1696 17.3089 19.8862 17.4227 18.0697C17.3089 16.254 18.4867 14.9697 19.8695 13.464C21.4312 11.7634 23.2874 9.74106 23.4642 6.33552H8.21222ZM10.8811 14.3252C9.07857 12.3625 6.9171 10.008 6.93616 5.75065V5.69338L6.94144 5.06128H24.7336L24.7388 5.69338V5.75065C24.7582 10.008 22.5979 12.3639 20.7942 14.3252C19.6029 15.6224 18.5899 16.726 18.6864 18.0218V18.1178C18.5899 19.4139 19.6029 20.5172 20.7942 21.8147C22.5964 23.776 24.7573 26.1302 24.7388 30.3878V30.4447L24.7336 31.0768H6.94261L6.93733 30.4447V30.3878C6.91827 26.1302 9.07974 23.7745 10.8822 21.8132C12.0733 20.5157 13.0865 19.4124 12.9898 18.1163V18.0218C13.0865 16.726 12.0733 15.6224 10.8822 14.3252H10.8811Z" fill="#F8951D"/>
<path fill-rule="evenodd" clip-rule="evenodd" d="M6.59869 3.91553H25.0771C25.3957 3.91638 25.7011 4.04419 25.9264 4.27101C26.1517 4.49783 26.2787 4.80522 26.2795 5.12599C26.2788 5.44679 26.1518 5.75422 25.9265 5.98106C25.7012 6.2079 25.3958 6.33568 25.0771 6.33646H6.59869C6.28004 6.3356 5.97469 6.2078 5.74937 5.98097C5.52405 5.75415 5.39709 5.44677 5.39624 5.12599C5.39717 4.80525 5.52415 4.4979 5.74945 4.2711C5.97476 4.04429 6.28006 3.91646 6.59869 3.91553Z" fill="#F8951D"/>
<path fill-rule="evenodd" clip-rule="evenodd" d="M6.59869 29.8027H25.0771C25.3957 29.8036 25.7011 29.9314 25.9264 30.1582C26.1517 30.385 26.2787 30.6924 26.2795 31.0132C26.2788 31.334 26.1518 31.6414 25.9265 31.8683C25.7012 32.0951 25.3958 32.2229 25.0771 32.2237H6.59869C6.28004 32.2228 5.97469 32.095 5.74937 31.8682C5.52405 31.6414 5.39709 31.334 5.39624 31.0132C5.39717 30.6925 5.52415 30.3851 5.74945 30.1583C5.97476 29.9315 6.28006 29.8037 6.59869 29.8027Z" fill="#F8951D"/>
</svg>
