<svg width="20" height="20" viewBox="0 0 20 20" fill="none" xmlns="http://www.w3.org/2000/svg">
<path d="M11.5709 7.99334V7.21834C12.0187 6.99168 12.4981 6.82168 13.0092 6.70834C13.5204 6.59501 14.0451 6.53834 14.5834 6.53834C14.8912 6.53834 15.1867 6.55807 15.4701 6.59751C15.7529 6.63751 16.0451 6.69362 16.3467 6.76584V7.52251C16.0556 7.42973 15.7723 7.36529 15.4967 7.32918C15.2201 7.29362 14.9156 7.27584 14.5834 7.27584C14.0445 7.27584 13.519 7.3364 13.0067 7.45751C12.4934 7.57862 12.0145 7.75723 11.5701 7.99334M11.5701 12.545V11.7367C11.9967 11.5106 12.4737 11.3408 13.0009 11.2275C13.5281 11.1142 14.0556 11.0575 14.5834 11.0575C14.8912 11.0575 15.1867 11.0775 15.4701 11.1175C15.7529 11.1564 16.0451 11.2122 16.3467 11.285V12.0417C16.0556 11.9489 15.7723 11.8845 15.4967 11.8483C15.2201 11.8128 14.9156 11.795 14.5834 11.795C14.0445 11.795 13.519 11.8603 13.0067 11.9908C12.4934 12.1208 12.0145 12.3056 11.5701 12.545ZM11.5701 10.285V9.47751C12.0179 9.25084 12.4973 9.08112 13.0084 8.96834C13.5195 8.85557 14.0445 8.7989 14.5834 8.79834C14.8912 8.79834 15.1865 8.81779 15.4692 8.85668C15.7526 8.89668 16.0448 8.95307 16.3459 9.02584V9.78251C16.0554 9.68918 15.772 9.62473 15.4959 9.58918C15.2198 9.55307 14.9156 9.53501 14.5834 9.53501C14.0445 9.53501 13.519 9.60112 13.0067 9.73334C12.4934 9.86501 12.0145 10.0489 11.5701 10.285ZM10.4167 14.4333C11.0923 14.0567 11.7737 13.7845 12.4609 13.6167C13.1481 13.4489 13.8556 13.3656 14.5834 13.3667C15.0834 13.3667 15.5329 13.3975 15.9317 13.4592C16.3306 13.5208 16.6826 13.6031 16.9876 13.7058C17.1154 13.7592 17.2329 13.7511 17.3401 13.6817C17.4473 13.6122 17.5006 13.5028 17.5001 13.3533V5.84001C17.5001 5.7439 17.4734 5.65834 17.4201 5.58334C17.3667 5.5089 17.2759 5.44501 17.1476 5.39168C16.6892 5.2289 16.2723 5.11779 15.8967 5.05834C15.5212 4.9989 15.0834 4.96862 14.5834 4.96751C13.8556 4.96751 13.1298 5.07473 12.4059 5.28918C11.6815 5.50418 11.0184 5.8264 10.4167 6.25584V14.4333ZM10.0001 15.6417C9.3223 15.1783 8.59453 14.8222 7.81675 14.5733C7.03897 14.3245 6.23897 14.2 5.41675 14.2C4.98341 14.2 4.5573 14.2361 4.13841 14.3083C3.72008 14.3811 3.31286 14.4978 2.91675 14.6583C2.61453 14.7789 2.33064 14.7425 2.06508 14.5492C1.79953 14.3558 1.66675 14.0883 1.66675 13.7467V5.69251C1.66675 5.4864 1.72091 5.29501 1.82925 5.11834C1.93758 4.94168 2.08953 4.8189 2.28508 4.75001C2.77786 4.53723 3.28786 4.38168 3.81508 4.28334C4.3423 4.18501 4.87619 4.13557 5.41675 4.13501C6.23341 4.13501 7.02953 4.25251 7.80508 4.48751C8.58175 4.72251 9.31341 5.06418 10.0001 5.51251C10.6873 5.06418 11.419 4.72251 12.1951 4.48751C12.9712 4.25251 13.7673 4.13501 14.5834 4.13501C15.124 4.13501 15.6579 4.18445 16.1851 4.28334C16.7129 4.38168 17.2229 4.53723 17.7151 4.75001C17.9106 4.81945 18.0626 4.94223 18.1709 5.11834C18.2792 5.29445 18.3334 5.48584 18.3334 5.69251V13.7467C18.3334 14.0878 18.1901 14.3497 17.9034 14.5325C17.6162 14.7147 17.3106 14.7456 16.9867 14.625C16.6017 14.475 16.2079 14.3667 15.8051 14.3C15.4029 14.2328 14.9956 14.1992 14.5834 14.1992C13.7612 14.1992 12.9612 14.3236 12.1834 14.5725C11.4056 14.8214 10.6779 15.1775 10.0001 15.6408" fill="#B1B1B1"/>
</svg>
