<svg width="22" height="22" viewBox="0 0 22 22" fill="none" xmlns="http://www.w3.org/2000/svg">
<path d="M7 5C7 4.46957 7.21071 3.96086 7.58579 3.58579C7.96086 3.21071 8.46957 3 9 3C9.53043 3 10.0391 3.21071 10.4142 3.58579C10.7893 3.96086 11 4.46957 11 5C12.1484 5.54303 13.1274 6.38833 13.8321 7.4453C14.5367 8.50227 14.9404 9.73107 15 11V14C15.0753 14.6217 15.2954 15.2171 15.6428 15.7381C15.9902 16.2592 16.4551 16.6914 17 17H1C1.54494 16.6914 2.00981 16.2592 2.35719 15.7381C2.70457 15.2171 2.92474 14.6217 3 14V11C3.05956 9.73107 3.4633 8.50227 4.16795 7.4453C4.8726 6.38833 5.85159 5.54303 7 5" stroke="#343C6A" stroke-width="1.5" stroke-linecap="round" stroke-linejoin="round"/>
<path d="M6 17V18C6 18.7956 6.31607 19.5587 6.87868 20.1213C7.44129 20.6839 8.20435 21 9 21C9.79565 21 10.5587 20.6839 11.1213 20.1213C11.6839 19.5587 12 18.7956 12 18V17" stroke="#343C6A" stroke-width="1.5" stroke-linecap="round" stroke-linejoin="round"/>
<circle cx="16" cy="6" r="4.75" fill="#D23131" stroke="white" stroke-width="1.5"/>
</svg>
