<svg width="24" height="24" viewBox="0 0 24 24" fill="none" xmlns="http://www.w3.org/2000/svg">
<path d="M6.77 8.731H17.232V7.731H6.769L6.77 8.731ZM4 20.769V5.616C4 5.168 4.15733 4.78667 4.472 4.472C4.78667 4.15733 5.168 4 5.616 4H18.385C18.8317 4 19.2127 4.15733 19.528 4.472C19.8427 4.78667 20 5.168 20 5.616V11.56C19.4053 11.3647 18.796 11.2643 18.172 11.259C17.548 11.2537 16.933 11.334 16.327 11.5H6.769V12.5H14.081C13.5797 12.8473 13.1377 13.255 12.755 13.723C12.3723 14.191 12.057 14.7063 11.809 15.269H6.77V16.269H11.48C11.408 16.5383 11.352 16.81 11.312 17.084C11.272 17.358 11.2517 17.644 11.251 17.942C11.251 18.3987 11.2987 18.8517 11.394 19.301C11.4893 19.7503 11.6327 20.1833 11.824 20.6L11.79 20.634L10.655 19.808L9.309 20.769L7.963 19.808L6.617 20.769L5.27 19.808L4 20.769Z" fill="#9F6BFF"/>
<rect x="13" y="13" width="9" height="9" rx="4.5" fill="#9F6BFF"/>
<path d="M17.1967 18.4474C17.1967 18.1543 17.2229 17.9435 17.2755 17.8151C17.328 17.6868 17.4392 17.5465 17.6092 17.3944C17.7575 17.2641 17.8706 17.1511 17.9485 17.0553C18.0264 16.9595 18.0652 16.85 18.0651 16.7268C18.0651 16.5785 18.0154 16.4554 17.9159 16.3577C17.8165 16.26 17.678 16.2112 17.5006 16.2112C17.3161 16.2112 17.1759 16.2673 17.0801 16.3794C16.9843 16.4916 16.9164 16.6056 16.8764 16.7214L16.3174 16.4826C16.3934 16.251 16.5327 16.0502 16.7353 15.8801C16.9379 15.71 17.193 15.625 17.5006 15.625C17.8805 15.625 18.1728 15.7309 18.3773 15.9426C18.5818 16.1544 18.684 16.4085 18.6838 16.7051C18.6838 16.886 18.645 17.0407 18.5672 17.1693C18.4895 17.2978 18.3674 17.4434 18.2008 17.6061C18.0235 17.7761 17.9159 17.9055 17.8779 17.9943C17.84 18.083 17.821 18.234 17.8208 18.4474H17.1967ZM17.5006 19.75C17.3812 19.75 17.279 19.7075 17.1941 19.6225C17.1091 19.5376 17.0665 19.4353 17.0664 19.3158C17.0662 19.1962 17.1088 19.094 17.1941 19.0092C17.2793 18.9244 17.3815 18.8819 17.5006 18.8816C17.6197 18.8813 17.722 18.9238 17.8074 19.0092C17.8928 19.0946 17.9352 19.1968 17.9348 19.3158C17.9344 19.4347 17.8919 19.537 17.8074 19.6225C17.7228 19.7081 17.6206 19.7506 17.5006 19.75Z" fill="white"/>
</svg>
