<svg width="50" height="50" viewBox="0 0 50 50" fill="none" xmlns="http://www.w3.org/2000/svg">
<circle cx="25" cy="25" r="25" fill="#FEEDD9"/>
<path d="M25 35V26" stroke="#F8951D" stroke-width="2" stroke-linecap="round" stroke-linejoin="round"/>
<path d="M28.17 15.2099C28.4191 15.0707 28.6997 14.9976 28.985 14.9976C29.2704 14.9976 29.551 15.0707 29.8 15.2099L34 17.5699C34.2975 17.7381 34.5449 17.9823 34.7171 18.2775C34.8893 18.5726 34.98 18.9082 34.98 19.2499C34.98 19.5916 34.8893 19.9272 34.7171 20.2224C34.5449 20.5176 34.2975 20.7617 34 20.9299L21.82 27.7899C21.5702 27.9324 21.2876 28.0074 21 28.0074C20.7124 28.0074 20.4298 27.9324 20.18 27.7899L16 25.4299C15.7026 25.2617 15.4551 25.0176 15.2829 24.7224C15.1107 24.4272 15.02 24.0916 15.02 23.7499C15.02 23.4082 15.1107 23.0726 15.2829 22.7775C15.4551 22.4823 15.7026 22.2381 16 22.0699L28.17 15.2099Z" stroke="#F8951D" stroke-width="2" stroke-linecap="round" stroke-linejoin="round"/>
<path d="M33 26V29.87C33.0004 30.2474 32.8971 30.6178 32.7013 30.9405C32.5056 31.2632 32.2249 31.5259 31.89 31.7L25.89 34.78C25.6151 34.9229 25.3098 34.9975 25 34.9975C24.6902 34.9975 24.3849 34.9229 24.11 34.78L18.11 31.7C17.7751 31.5259 17.4944 31.2632 17.2987 30.9405C17.1029 30.6178 16.9996 30.2474 17 29.87V26" stroke="#F8951D" stroke-width="2" stroke-linecap="round" stroke-linejoin="round"/>
<path d="M34 25.43C34.2975 25.2618 34.5449 25.0176 34.7171 24.7225C34.8893 24.4273 34.98 24.0917 34.98 23.75C34.98 23.4083 34.8893 23.0727 34.7171 22.7775C34.5449 22.4824 34.2975 22.2382 34 22.07L21.83 15.2C21.5819 15.0579 21.3009 14.9832 21.015 14.9832C20.7291 14.9832 20.4481 15.0579 20.2 15.2L16 17.57C15.7026 17.7382 15.4551 17.9824 15.2829 18.2775C15.1107 18.5727 15.02 18.9083 15.02 19.25C15.02 19.5917 15.1107 19.9273 15.2829 20.2225C15.4551 20.5176 15.7026 20.7618 16 20.93L28.18 27.79C28.428 27.9325 28.709 28.0075 28.995 28.0075C29.281 28.0075 29.562 27.9325 29.81 27.79L34 25.43Z" stroke="#F8951D" stroke-width="2" stroke-linecap="round" stroke-linejoin="round"/>
</svg>
