<svg width="23" height="23" viewBox="0 0 23 23" fill="none" xmlns="http://www.w3.org/2000/svg">
<path d="M21.3002 1.7002L12.9002 10.1002M21.3002 1.7002V6.6002M21.3002 1.7002L16.4002 1.7002M4.5002 1.7002H7.60711C8.24952 1.7002 8.8095 2.13741 8.96531 2.76065L9.78576 6.04246C9.96319 6.75217 9.56429 7.47883 8.87028 7.71017L7.3182 8.22753C6.50811 8.49756 6.02587 9.32855 6.19333 10.1659C6.86359 13.5172 9.4832 16.1368 12.8345 16.8071C13.6718 16.9745 14.5028 16.4923 14.7729 15.6822L15.1897 14.4316C15.4592 13.6233 16.382 13.2411 17.144 13.6221L20.5263 15.3132C21.0006 15.5504 21.3002 16.0352 21.3002 16.5654V18.5002C21.3002 20.0466 20.0466 21.3002 18.5002 21.3002H15.7002C7.96821 21.3002 1.7002 15.0322 1.7002 7.30019V4.5002C1.7002 2.9538 2.9538 1.7002 4.5002 1.7002Z" stroke="#F8951D" stroke-width="2"/>
</svg>
