<svg width="301" height="51" viewBox="0 0 301 51" fill="none" xmlns="http://www.w3.org/2000/svg">
<rect x="0.5" y="1" width="49" height="49" rx="24.5" fill="#F8951D"/>
<rect x="0.5" y="1" width="49" height="49" rx="24.5" stroke="#F8951D"/>
<path d="M31.6667 20.5L22.5 29.6667L18.3334 25.5" stroke="white" stroke-width="2" stroke-linecap="round" stroke-linejoin="round"/>
<line x1="50" y1="24.6" x2="83.6667" y2="24.6" stroke="#F8951D" stroke-width="1.8"/>
<rect x="84.1666" y="1" width="49" height="49" rx="24.5" fill="#F8951D"/>
<rect x="84.1666" y="1" width="49" height="49" rx="24.5" stroke="#F8951D"/>
<path d="M115.333 20.5L106.167 29.6667L102 25.5" stroke="white" stroke-width="2" stroke-linecap="round" stroke-linejoin="round"/>
<line x1="133.667" y1="24.6" x2="167.333" y2="24.6" stroke="#F8951D" stroke-width="1.8"/>
<rect x="167.833" y="1" width="49" height="49" rx="24.5" fill="#F8951D"/>
<rect x="167.833" y="1" width="49" height="49" rx="24.5" stroke="#F8951D"/>
<path d="M192.833 32.679C191.912 32.679 191.094 32.5213 190.378 32.206C189.666 31.8906 189.104 31.4517 188.691 30.8892C188.277 30.3267 188.058 29.6768 188.032 28.9396H190.436C190.457 29.2933 190.574 29.6023 190.787 29.8665C191 30.1264 191.284 30.3288 191.637 30.4737C191.991 30.6186 192.387 30.6911 192.826 30.6911C193.295 30.6911 193.71 30.6101 194.073 30.4482C194.435 30.282 194.718 30.0518 194.923 29.7578C195.127 29.4638 195.227 29.125 195.223 28.7415C195.227 28.3452 195.125 27.9957 194.916 27.6932C194.708 27.3906 194.405 27.1541 194.009 26.9837C193.617 26.8132 193.144 26.728 192.59 26.728H191.433V24.8999H192.59C193.046 24.8999 193.444 24.821 193.785 24.6634C194.13 24.5057 194.401 24.2841 194.597 23.9986C194.793 23.7088 194.889 23.3743 194.884 22.995C194.889 22.6243 194.806 22.3026 194.635 22.0298C194.469 21.7528 194.232 21.5376 193.926 21.3842C193.623 21.2308 193.267 21.1541 192.858 21.1541C192.458 21.1541 192.087 21.2266 191.746 21.3714C191.405 21.5163 191.13 21.723 190.921 21.9915C190.713 22.2557 190.602 22.571 190.589 22.9375H188.307C188.324 22.2045 188.535 21.5611 188.94 21.0071C189.349 20.4489 189.894 20.0142 190.576 19.7031C191.258 19.3878 192.023 19.2301 192.871 19.2301C193.745 19.2301 194.503 19.3942 195.146 19.7223C195.794 20.0462 196.295 20.483 196.649 21.0327C197.002 21.5824 197.179 22.1896 197.179 22.8544C197.183 23.5916 196.966 24.2095 196.527 24.7081C196.093 25.2067 195.521 25.5327 194.814 25.6861V25.7884C195.735 25.9162 196.44 26.2571 196.93 26.8111C197.424 27.3608 197.669 28.0447 197.665 28.8629C197.665 29.5959 197.456 30.2521 197.039 30.8317C196.625 31.407 196.054 31.8587 195.325 32.1868C194.601 32.5149 193.77 32.679 192.833 32.679Z" fill="white"/>
<line x1="217.333" y1="24.6" x2="251" y2="24.6" stroke="#F8951D" stroke-width="1.8"/>
<rect x="251.5" y="1" width="49" height="49" rx="24.5" fill="white"/>
<rect x="251.5" y="1" width="49" height="49" rx="24.5" stroke="#F8951D"/>
<path d="M271.433 30.071V28.1854L276.987 19.4091H278.56V22.0938H277.601L273.862 28.0192V28.1214H281.615V30.071H271.433ZM277.678 32.5V29.4957L277.703 28.652V19.4091H279.941V32.5H277.678Z" fill="#F8951D"/>
</svg>
