<svg width="301" height="50" viewBox="0 0 301 50" fill="none" xmlns="http://www.w3.org/2000/svg">
<rect x="0.5" y="0.5" width="49" height="49" rx="24.5" fill="#F8951D"/>
<rect x="0.5" y="0.5" width="49" height="49" rx="24.5" stroke="#F8951D"/>
<path d="M27.6637 18.9091V32H25.2923V21.2166H25.2156L22.1538 23.1726V20.9993L25.4073 18.9091H27.6637Z" fill="white"/>
<line x1="50" y1="24.1" x2="83.6667" y2="24.1" stroke="#F8951D" stroke-width="1.8"/>
<rect x="84.167" y="0.5" width="49" height="49" rx="24.5" fill="white"/>
<rect x="84.167" y="0.5" width="49" height="49" rx="24.5" stroke="#F8951D"/>
<path d="M104.741 32V30.2869L109.285 25.8317C109.72 25.3928 110.082 25.0028 110.372 24.6619C110.662 24.321 110.879 23.9908 111.024 23.6712C111.169 23.3516 111.241 23.0107 111.241 22.6484C111.241 22.2351 111.147 21.8814 110.96 21.5874C110.772 21.2891 110.515 21.0589 110.187 20.897C109.858 20.7351 109.486 20.6541 109.068 20.6541C108.638 20.6541 108.26 20.7436 107.937 20.9226C107.613 21.0973 107.361 21.3466 107.182 21.6705C107.008 21.9943 106.92 22.38 106.92 22.8274H104.664C104.664 21.9964 104.853 21.2741 105.233 20.6605C105.612 20.0469 106.134 19.5717 106.799 19.2351C107.468 18.8984 108.235 18.7301 109.1 18.7301C109.978 18.7301 110.749 18.8942 111.414 19.2223C112.079 19.5504 112.594 20 112.961 20.571C113.331 21.142 113.517 21.794 113.517 22.527C113.517 23.017 113.423 23.4986 113.236 23.9716C113.048 24.4446 112.718 24.9687 112.245 25.544C111.776 26.1193 111.118 26.8161 110.27 27.6342L108.013 29.929V30.0185H113.715V32H104.741Z" fill="#F8951D"/>
<line x1="133.667" y1="24.1" x2="167.334" y2="24.1" stroke="#F8951D" stroke-width="1.8"/>
<rect x="167.833" y="0.5" width="49" height="49" rx="24.5" fill="white"/>
<rect x="167.833" y="0.5" width="49" height="49" rx="24.5" stroke="#F8951D"/>
<path d="M192.832 32.179C191.912 32.179 191.094 32.0213 190.378 31.706C189.666 31.3906 189.104 30.9517 188.69 30.3892C188.277 29.8267 188.057 29.1768 188.032 28.4396H190.435C190.456 28.7933 190.574 29.1023 190.787 29.3665C191 29.6264 191.283 29.8288 191.637 29.9737C191.991 30.1186 192.387 30.1911 192.826 30.1911C193.295 30.1911 193.71 30.1101 194.072 29.9482C194.434 29.782 194.718 29.5518 194.922 29.2578C195.127 28.9638 195.227 28.625 195.223 28.2415C195.227 27.8452 195.125 27.4957 194.916 27.1932C194.707 26.8906 194.405 26.6541 194.008 26.4837C193.616 26.3132 193.143 26.228 192.589 26.228H191.432V24.3999H192.589C193.045 24.3999 193.444 24.321 193.785 24.1634C194.13 24.0057 194.4 23.7841 194.596 23.4986C194.792 23.2088 194.888 22.8743 194.884 22.495C194.888 22.1243 194.805 21.8026 194.635 21.5298C194.469 21.2528 194.232 21.0376 193.925 20.8842C193.623 20.7308 193.267 20.6541 192.858 20.6541C192.457 20.6541 192.086 20.7266 191.746 20.8714C191.405 21.0163 191.13 21.223 190.921 21.4915C190.712 21.7557 190.601 22.071 190.589 22.4375H188.307C188.324 21.7045 188.535 21.0611 188.939 20.5071C189.349 19.9489 189.894 19.5142 190.576 19.2031C191.258 18.8878 192.023 18.7301 192.871 18.7301C193.744 18.7301 194.503 18.8942 195.146 19.2223C195.794 19.5462 196.295 19.983 196.648 20.5327C197.002 21.0824 197.179 21.6896 197.179 22.3544C197.183 23.0916 196.966 23.7095 196.527 24.2081C196.092 24.7067 195.521 25.0327 194.814 25.1861V25.2884C195.734 25.4162 196.439 25.7571 196.93 26.3111C197.424 26.8608 197.669 27.5447 197.665 28.3629C197.665 29.0959 197.456 29.7521 197.038 30.3317C196.625 30.907 196.054 31.3587 195.325 31.6868C194.601 32.0149 193.77 32.179 192.832 32.179Z" fill="#F8951D"/>
<line x1="217.333" y1="24.1" x2="251" y2="24.1" stroke="#F8951D" stroke-width="1.8"/>
<rect x="251.5" y="0.5" width="49" height="49" rx="24.5" fill="white"/>
<rect x="251.5" y="0.5" width="49" height="49" rx="24.5" stroke="#F8951D"/>
<path d="M271.433 29.571V27.6854L276.987 18.9091H278.56V21.5938H277.601L273.862 27.5192V27.6214H281.615V29.571H271.433ZM277.678 32V28.9957L277.703 28.152V18.9091H279.941V32H277.678Z" fill="#F8951D"/>
</svg>
