<svg width="301" height="51" viewBox="0 0 301 51" fill="none" xmlns="http://www.w3.org/2000/svg">
<rect x="0.5" y="0.983398" width="49" height="49" rx="24.5" fill="#F8951D"/>
<rect x="0.5" y="0.983398" width="49" height="49" rx="24.5" stroke="#F8951D"/>
<path d="M31.6663 20.4834L22.4997 29.6501L18.333 25.4834" stroke="white" stroke-width="2" stroke-linecap="round" stroke-linejoin="round"/>
<line x1="50" y1="24.5834" x2="83.6667" y2="24.5834" stroke="#F8951D" stroke-width="1.8"/>
<rect x="84.167" y="0.983398" width="49" height="49" rx="24.5" fill="#F8951D"/>
<rect x="84.167" y="0.983398" width="49" height="49" rx="24.5" stroke="#F8951D"/>
<path d="M104.741 32.4834V30.7703L109.285 26.3151C109.72 25.8762 110.082 25.4862 110.372 25.1453C110.662 24.8044 110.879 24.4742 111.024 24.1546C111.169 23.835 111.241 23.4941 111.241 23.1318C111.241 22.7185 111.147 22.3648 110.96 22.0708C110.772 21.7725 110.515 21.5423 110.187 21.3804C109.858 21.2185 109.486 21.1375 109.068 21.1375C108.638 21.1375 108.26 21.227 107.937 21.406C107.613 21.5807 107.361 21.83 107.182 22.1539C107.008 22.4777 106.92 22.8634 106.92 23.3108H104.664C104.664 22.4798 104.853 21.7575 105.233 21.1439C105.612 20.5303 106.134 20.0551 106.799 19.7185C107.468 19.3818 108.235 19.2135 109.1 19.2135C109.978 19.2135 110.749 19.3776 111.414 19.7057C112.079 20.0338 112.594 20.4834 112.961 21.0544C113.331 21.6254 113.517 22.2774 113.517 23.0104C113.517 23.5004 113.423 23.982 113.236 24.455C113.048 24.928 112.718 25.4521 112.245 26.0274C111.776 26.6027 111.118 27.2994 110.27 28.1176L108.013 30.4124V30.5019H113.715V32.4834H104.741Z" fill="white"/>
<line x1="133.667" y1="24.5834" x2="167.334" y2="24.5834" stroke="#F8951D" stroke-width="1.8"/>
<rect x="167.833" y="0.983398" width="49" height="49" rx="24.5" fill="white"/>
<rect x="167.833" y="0.983398" width="49" height="49" rx="24.5" stroke="#F8951D"/>
<path d="M192.832 32.6624C191.912 32.6624 191.094 32.5047 190.378 32.1894C189.666 31.874 189.104 31.4351 188.69 30.8726C188.277 30.3101 188.057 29.6602 188.032 28.923H190.435C190.456 29.2767 190.574 29.5857 190.787 29.8499C191 30.1098 191.283 30.3122 191.637 30.4571C191.991 30.602 192.387 30.6744 192.826 30.6744C193.295 30.6744 193.71 30.5935 194.072 30.4316C194.434 30.2654 194.718 30.0352 194.922 29.7412C195.127 29.4472 195.227 29.1084 195.223 28.7249C195.227 28.3286 195.125 27.9791 194.916 27.6766C194.707 27.374 194.405 27.1375 194.008 26.9671C193.616 26.7966 193.143 26.7114 192.589 26.7114H191.432V24.8833H192.589C193.045 24.8833 193.444 24.8044 193.785 24.6468C194.13 24.4891 194.4 24.2675 194.596 23.982C194.792 23.6922 194.888 23.3577 194.884 22.9784C194.888 22.6077 194.805 22.286 194.635 22.0132C194.469 21.7362 194.232 21.521 193.925 21.3676C193.623 21.2142 193.267 21.1375 192.858 21.1375C192.457 21.1375 192.086 21.21 191.746 21.3548C191.405 21.4997 191.13 21.7064 190.921 21.9749C190.712 22.2391 190.601 22.5544 190.589 22.9209H188.307C188.324 22.1879 188.535 21.5445 188.939 20.9905C189.349 20.4323 189.894 19.9976 190.576 19.6865C191.258 19.3712 192.023 19.2135 192.871 19.2135C193.744 19.2135 194.503 19.3776 195.146 19.7057C195.794 20.0296 196.295 20.4664 196.648 21.0161C197.002 21.5658 197.179 22.173 197.179 22.8378C197.183 23.575 196.966 24.1929 196.527 24.6915C196.092 25.1901 195.521 25.5161 194.814 25.6695V25.7718C195.734 25.8996 196.439 26.2405 196.93 26.7945C197.424 27.3442 197.669 28.0281 197.665 28.8463C197.665 29.5793 197.456 30.2355 197.038 30.8151C196.625 31.3904 196.054 31.8421 195.325 32.1702C194.601 32.4983 193.77 32.6624 192.832 32.6624Z" fill="#F8951D"/>
<line x1="217.333" y1="24.5834" x2="251" y2="24.5834" stroke="#F8951D" stroke-width="1.8"/>
<rect x="251.5" y="0.983398" width="49" height="49" rx="24.5" fill="white"/>
<rect x="251.5" y="0.983398" width="49" height="49" rx="24.5" stroke="#F8951D"/>
<path d="M271.433 30.0544V28.1688L276.987 19.3925H278.56V22.0771H277.601L273.862 28.0026V28.1048H281.615V30.0544H271.433ZM277.678 32.4834V29.4791L277.703 28.6354V19.3925H279.941V32.4834H277.678Z" fill="#F8951D"/>
</svg>
