<svg width="50" height="50" viewBox="0 0 50 50" fill="none" xmlns="http://www.w3.org/2000/svg">
<circle cx="25" cy="25" r="25" fill="#FEEDD9"/>
<path d="M20.5 19.27L29.5 24.42" stroke="#F8951D" stroke-width="2" stroke-linecap="round" stroke-linejoin="round"/>
<path d="M34 22.9999C33.9996 22.6492 33.9071 22.3047 33.7315 22.0011C33.556 21.6974 33.3037 21.4453 33 21.2699L26 17.2699C25.696 17.0944 25.3511 17.002 25 17.002C24.6489 17.002 24.304 17.0944 24 17.2699L17 21.2699C16.6963 21.4453 16.444 21.6974 16.2685 22.0011C16.0929 22.3047 16.0004 22.6492 16 22.9999V30.9999C16.0004 31.3506 16.0929 31.6951 16.2685 31.9987C16.444 32.3024 16.6963 32.5545 17 32.7299L24 36.7299C24.304 36.9054 24.6489 36.9979 25 36.9979C25.3511 36.9979 25.696 36.9054 26 36.7299L33 32.7299C33.3037 32.5545 33.556 32.3024 33.7315 31.9987C33.9071 31.6951 33.9996 31.3506 34 30.9999V22.9999Z" stroke="#F8951D" stroke-width="2" stroke-linecap="round" stroke-linejoin="round"/>
<path d="M16.3 22L25 27L33.7001 22" stroke="#F8951D" stroke-width="2" stroke-linecap="round" stroke-linejoin="round"/>
<path d="M25 37V27" stroke="#F8951D" stroke-width="2" stroke-linecap="round" stroke-linejoin="round"/>
</svg>
