<svg width="28" height="28" viewBox="0 0 28 28" fill="none" xmlns="http://www.w3.org/2000/svg">
<path d="M18.375 14C18.375 15.1603 17.9141 16.2731 17.0936 17.0936C16.2731 17.9141 15.1603 18.375 14 18.375C12.8397 18.375 11.7269 17.9141 10.9064 17.0936C10.0859 16.2731 9.625 15.1603 9.625 14C9.625 12.8397 10.0859 11.7269 10.9064 10.9064C11.7269 10.0859 12.8397 9.625 14 9.625C15.1603 9.625 16.2731 10.0859 17.0936 10.9064C17.9141 11.7269 18.375 12.8397 18.375 14Z" fill="#F8951D"/>
<path d="M0 14C0 14 5.25 4.375 14 4.375C22.75 4.375 28 14 28 14C28 14 22.75 23.625 14 23.625C5.25 23.625 0 14 0 14ZM14 20.125C15.6245 20.125 17.1824 19.4797 18.331 18.331C19.4797 17.1824 20.125 15.6245 20.125 14C20.125 12.3755 19.4797 10.8176 18.331 9.66897C17.1824 8.52031 15.6245 7.875 14 7.875C12.3755 7.875 10.8176 8.52031 9.66897 9.66897C8.52031 10.8176 7.875 12.3755 7.875 14C7.875 15.6245 8.52031 17.1824 9.66897 18.331C10.8176 19.4797 12.3755 20.125 14 20.125Z" fill="#F8951D"/>
</svg>
