<svg width="237" height="72" viewBox="0 0 237 72" fill="none" xmlns="http://www.w3.org/2000/svg">
<path d="M91.185 64.2242C102.06 64.2242 109.648 58.6803 111.418 49.4688H101.892C100.712 53.4775 97.0021 55.6951 91.3536 55.6951C84.5248 55.6951 80.6468 51.9423 79.888 44.5219L111.25 44.4367V41.2809C111.25 28.1461 103.325 19.7022 90.8478 19.7022C78.6234 19.7022 70.1085 28.8284 70.1085 42.0485C70.1085 55.098 78.792 64.2242 91.185 64.2242ZM90.9321 28.2314C97.0864 28.2314 101.049 32.0695 101.049 37.8692H80.1409C81.1526 31.5577 84.862 28.2314 90.9321 28.2314Z" fill="#F8951D"/>
<path d="M131.463 64.2242C137.954 64.2242 143.603 61.239 145.373 56.8892L146.132 63.1154H155.153V37.5281C155.153 25.8432 148.24 19.7022 137.027 19.7022C125.73 19.7022 118.311 25.6726 118.311 34.7988H127.079C127.079 30.3636 130.451 27.8049 136.521 27.8049C141.748 27.8049 145.12 30.1078 145.12 35.8223V36.7605L132.643 37.6987C122.779 38.4663 117.215 43.3279 117.215 51.0894C117.215 59.0214 122.611 64.2242 131.463 64.2242ZM134.835 56.3774C130.198 56.3774 127.669 54.501 127.669 50.6629C127.669 47.2513 130.114 45.119 136.521 44.5219L145.205 43.8396V46.0572C145.205 52.5393 141.158 56.3774 134.835 56.3774Z" fill="#F8951D"/>
<path d="M178.844 63.1154V29.6813H186.937V20.9816H178.844V7.84678H168.559V20.9816H160.55V29.6813H168.559V63.1154H178.844Z" fill="#F8951D"/>
<path d="M198.474 12.5378C201.846 12.5378 204.628 9.72318 204.628 6.22625C204.628 2.72932 201.846 0 198.474 0C194.933 0 192.151 2.72932 192.151 6.22625C192.151 9.72318 194.933 12.5378 198.474 12.5378ZM193.331 63.1154H203.617V20.9816H193.331V63.1154Z" fill="#F8951D"/>
<path d="M228.407 63.1154V29.6813H236.5V20.9816H228.407V7.84678H218.121V20.9816H210.112V29.6813H218.121V63.1154H228.407Z" fill="#F8951D"/>
<path d="M25.5004 16.5642C26.1313 20.4236 27.6094 23.212 29.422 26.3756C31.3931 29.8142 33.3172 33.2928 33.1766 38.2638C33.1862 38.6064 33.1859 38.9415 33.1766 39.2698V48.6353C33.3982 50.9336 31.9256 49.0949 30.7242 51.5157C30.0897 52.7923 28.8969 52.636 27.6962 53.3319C26.6952 55.3532 25.9135 57.427 25.5 59.9634H41.1318C40.6593 57.0719 39.711 54.7817 38.5026 52.4841C37.4822 52.6942 36.5335 53.757 35.9785 52.6398C34.7771 50.219 33.2335 50.9361 33.4568 48.6385V39.3048C33.4463 38.9653 33.4455 38.6171 33.4568 38.2638C33.3161 33.2928 35.2395 29.8154 37.2117 26.3756C37.8473 25.2652 38.4422 24.2017 38.9735 23.1245C33.4757 23.2764 34.3563 15.5927 25.5004 16.5642Z" fill="#F8951D"/>
<path d="M17.8041 13.4164C18.1749 20.6281 22.088 24.9108 25.3781 28.512C28.2919 31.7005 30.7737 34.4189 30.5345 38.2652C30.7737 42.1108 28.2919 44.8298 25.3781 48.0184C22.088 51.6202 18.1761 55.9028 17.8041 63.1139H49.9423C49.5715 55.9028 45.6584 51.6202 42.3677 48.0184C39.4539 44.8298 36.9721 42.112 37.2118 38.2652C36.9721 34.4202 39.4539 31.7005 42.3677 28.512C45.6584 24.9108 49.5696 20.6281 49.9423 13.4164H17.8041ZM23.4277 30.3357C19.6296 26.1793 15.0751 21.1933 15.1153 12.1779V12.0566L15.1264 10.718H52.6169L52.628 12.0566V12.1779C52.6688 21.1933 48.1168 26.1825 44.3162 30.3357C41.8059 33.0828 39.6714 35.4199 39.8747 38.1639V38.3671C39.6714 41.1117 41.8059 43.4481 44.3162 46.1959C48.1137 50.3491 52.667 55.3345 52.628 64.3506V64.4712L52.6169 65.8098H15.1288L15.1177 64.4712V64.3506C15.0776 55.3345 19.6321 50.346 23.4302 46.1928C25.9398 43.445 28.075 41.1086 27.871 38.3639V38.1639C28.075 35.4199 25.9398 33.0828 23.4302 30.3357H23.4277Z" fill="#F8951D"/>
<path fill-rule="evenodd" clip-rule="evenodd" d="M14.4046 8.2915H53.3412C54.0126 8.29332 54.6561 8.56397 55.1308 9.04429C55.6056 9.52462 55.8731 10.1756 55.8749 10.8548C55.8733 11.5342 55.6058 12.1852 55.131 12.6656C54.6562 13.1459 54.0127 13.4165 53.3412 13.4182H14.4046C13.7331 13.4164 13.0897 13.1457 12.6149 12.6654C12.1402 12.1851 11.8726 11.5341 11.8708 10.8548C11.8728 10.1756 12.1404 9.52477 12.6151 9.04448C13.0899 8.56418 13.7332 8.29348 14.4046 8.2915Z" fill="#F8951D"/>
<path fill-rule="evenodd" clip-rule="evenodd" d="M14.4046 63.1118H53.3412C54.0126 63.1136 54.6561 63.3843 55.1308 63.8646C55.6056 64.3449 55.8731 64.9959 55.8749 65.6752C55.8733 66.3545 55.6058 67.0055 55.131 67.4859C54.6562 67.9662 54.0127 68.2368 53.3412 68.2385H14.4046C13.7331 68.2367 13.0897 67.966 12.6149 67.4857C12.1402 67.0054 11.8726 66.3544 11.8708 65.6752C11.8728 64.9959 12.1404 64.3451 12.6151 63.8648C13.0899 63.3845 13.7332 63.1138 14.4046 63.1118Z" fill="#F8951D"/>
</svg>
